<svg id="visual" viewBox="0 0 900 450" width="900" height="450" xmlns="http://www.w3.org/2000/svg" xmlns:xlink="http://www.w3.org/1999/xlink" version="1.1"><rect x="0" y="0" width="900" height="450" fill="#3EA65A"></rect><defs><linearGradient id="grad1_0" x1="50%" y1="100%" x2="100%" y2="0%"><stop offset="10%" stop-color="#238744" stop-opacity="1"></stop><stop offset="90%" stop-color="#238744" stop-opacity="1"></stop></linearGradient></defs><defs><linearGradient id="grad1_1" x1="50%" y1="100%" x2="100%" y2="0%"><stop offset="10%" stop-color="#238744" stop-opacity="1"></stop><stop offset="90%" stop-color="#3ea65a" stop-opacity="1"></stop></linearGradient></defs><defs><linearGradient id="grad2_0" x1="0%" y1="100%" x2="50%" y2="0%"><stop offset="10%" stop-color="#238744" stop-opacity="1"></stop><stop offset="90%" stop-color="#238744" stop-opacity="1"></stop></linearGradient></defs><defs><linearGradient id="grad2_1" x1="0%" y1="100%" x2="50%" y2="0%"><stop offset="10%" stop-color="#3ea65a" stop-opacity="1"></stop><stop offset="90%" stop-color="#238744" stop-opacity="1"></stop></linearGradient></defs><g transform="translate(900, 450)"><path d="M-315 0C-310.6 -40.9 -306.2 -81.8 -291 -120.5C-275.9 -159.3 -250 -195.9 -217.1 -217.1C-184.1 -238.3 -144.1 -244 -106.8 -257.8C-69.4 -271.5 -34.7 -293.3 0 -315L0 0Z" fill="#31964f"></path><path d="M-157.5 0C-155.3 -20.4 -153.1 -40.9 -145.5 -60.3C-137.9 -79.6 -125 -98 -108.5 -108.5C-92.1 -119.1 -72.1 -122 -53.4 -128.9C-34.7 -135.8 -17.4 -146.6 0 -157.5L0 0Z" fill="#238744"></path></g><g transform="translate(0, 0)"><path d="M315 0C311.2 41.9 307.3 83.7 291 120.5C274.7 157.4 246 189.2 215 215C183.9 240.8 150.6 260.6 114.4 276.2C78.2 291.9 39.1 303.5 0 315L0 0Z" fill="#31964f"></path><path d="M157.5 0C155.6 20.9 153.7 41.9 145.5 60.3C137.4 78.7 123 94.6 107.5 107.5C92 120.4 75.3 130.3 57.2 138.1C39.1 146 19.6 151.7 0 157.5L0 0Z" fill="#238744"></path></g></svg>