<svg id="visual" viewBox="0 0 3000 300" width="3000" height="300" xmlns="http://www.w3.org/2000/svg" xmlns:xlink="http://www.w3.org/1999/xlink" version="1.1"><path d="M0 28L33.3 36C66.7 44 133.3 60 200 65.5C266.7 71 333.3 66 400 63C466.7 60 533.3 59 600 56C666.7 53 733.3 48 800 43C866.7 38 933.3 33 1000 31C1066.7 29 1133.3 30 1200 33C1266.7 36 1333.3 41 1400 47.5C1466.7 54 1533.3 62 1600 67.5C1666.7 73 1733.3 76 1800 69.5C1866.7 63 1933.3 47 2000 43.5C2066.7 40 2133.3 49 2200 52C2266.7 55 2333.3 52 2400 48.5C2466.7 45 2533.3 41 2600 40C2666.7 39 2733.3 41 2800 44C2866.7 47 2933.3 51 2966.7 53L3000 55L3000 0L2966.7 0C2933.3 0 2866.7 0 2800 0C2733.3 0 2666.7 0 2600 0C2533.3 0 2466.7 0 2400 0C2333.3 0 2266.7 0 2200 0C2133.3 0 2066.7 0 2000 0C1933.3 0 1866.7 0 1800 0C1733.3 0 1666.7 0 1600 0C1533.3 0 1466.7 0 1400 0C1333.3 0 1266.7 0 1200 0C1133.3 0 1066.7 0 1000 0C933.3 0 866.7 0 800 0C733.3 0 666.7 0 600 0C533.3 0 466.7 0 400 0C333.3 0 266.7 0 200 0C133.3 0 66.7 0 33.3 0L0 0Z" fill="#089e37"></path><path d="M0 79L33.3 92.5C66.7 106 133.3 133 200 141C266.7 149 333.3 138 400 131.5C466.7 125 533.3 123 600 122.5C666.7 122 733.3 123 800 121.5C866.7 120 933.3 116 1000 116.5C1066.7 117 1133.3 122 1200 128C1266.7 134 1333.3 141 1400 149.5C1466.7 158 1533.3 168 1600 171C1666.7 174 1733.3 170 1800 163C1866.7 156 1933.3 146 2000 146.5C2066.7 147 2133.3 158 2200 158.5C2266.7 159 2333.3 149 2400 134.5C2466.7 120 2533.3 101 2600 96C2666.7 91 2733.3 100 2800 107C2866.7 114 2933.3 119 2966.7 121.5L3000 124L3000 53L2966.7 51C2933.3 49 2866.7 45 2800 42C2733.3 39 2666.7 37 2600 38C2533.3 39 2466.7 43 2400 46.5C2333.3 50 2266.7 53 2200 50C2133.3 47 2066.7 38 2000 41.5C1933.3 45 1866.7 61 1800 67.5C1733.3 74 1666.7 71 1600 65.5C1533.3 60 1466.7 52 1400 45.5C1333.3 39 1266.7 34 1200 31C1133.3 28 1066.7 27 1000 29C933.3 31 866.7 36 800 41C733.3 46 666.7 51 600 54C533.3 57 466.7 58 400 61C333.3 64 266.7 69 200 63.5C133.3 58 66.7 42 33.3 34L0 26Z" fill="#56b25f"></path><path d="M0 190L33.3 193.5C66.7 197 133.3 204 200 208.5C266.7 213 333.3 215 400 212C466.7 209 533.3 201 600 201.5C666.7 202 733.3 211 800 214.5C866.7 218 933.3 216 1000 215.5C1066.7 215 1133.3 216 1200 214C1266.7 212 1333.3 207 1400 208C1466.7 209 1533.3 216 1600 219C1666.7 222 1733.3 221 1800 215C1866.7 209 1933.3 198 2000 196.5C2066.7 195 2133.3 203 2200 203.5C2266.7 204 2333.3 197 2400 195.5C2466.7 194 2533.3 198 2600 202C2666.7 206 2733.3 210 2800 207.5C2866.7 205 2933.3 196 2966.7 191.5L3000 187L3000 122L2966.7 119.5C2933.3 117 2866.7 112 2800 105C2733.3 98 2666.7 89 2600 94C2533.3 99 2466.7 118 2400 132.5C2333.3 147 2266.7 157 2200 156.5C2133.3 156 2066.7 145 2000 144.5C1933.3 144 1866.7 154 1800 161C1733.3 168 1666.7 172 1600 169C1533.3 166 1466.7 156 1400 147.5C1333.3 139 1266.7 132 1200 126C1133.3 120 1066.7 115 1000 114.5C933.3 114 866.7 118 800 119.5C733.3 121 666.7 120 600 120.5C533.3 121 466.7 123 400 129.5C333.3 136 266.7 147 200 139C133.3 131 66.7 104 33.3 90.5L0 77Z" fill="#84c585"></path><path d="M0 208L33.3 214C66.7 220 133.3 232 200 239.5C266.7 247 333.3 250 400 246.5C466.7 243 533.3 233 600 234.5C666.7 236 733.3 249 800 253C866.7 257 933.3 252 1000 248C1066.7 244 1133.3 241 1200 240.5C1266.7 240 1333.3 242 1400 244C1466.7 246 1533.3 248 1600 247.5C1666.7 247 1733.3 244 1800 239C1866.7 234 1933.3 227 2000 229C2066.7 231 2133.3 242 2200 243C2266.7 244 2333.3 235 2400 231C2466.7 227 2533.3 228 2600 229.5C2666.7 231 2733.3 233 2800 232C2866.7 231 2933.3 227 2966.7 225L3000 223L3000 185L2966.7 189.5C2933.3 194 2866.7 203 2800 205.5C2733.3 208 2666.7 204 2600 200C2533.3 196 2466.7 192 2400 193.5C2333.3 195 2266.7 202 2200 201.5C2133.3 201 2066.7 193 2000 194.5C1933.3 196 1866.7 207 1800 213C1733.3 219 1666.7 220 1600 217C1533.3 214 1466.7 207 1400 206C1333.3 205 1266.7 210 1200 212C1133.3 214 1066.7 213 1000 213.5C933.3 214 866.7 216 800 212.5C733.3 209 666.7 200 600 199.5C533.3 199 466.7 207 400 210C333.3 213 266.7 211 200 206.5C133.3 202 66.7 195 33.3 191.5L0 188Z" fill="#aed9ad"></path><path d="M0 247L33.3 252.5C66.7 258 133.3 269 200 272.5C266.7 276 333.3 272 400 270C466.7 268 533.3 268 600 269.5C666.7 271 733.3 274 800 276C866.7 278 933.3 279 1000 275C1066.7 271 1133.3 262 1200 258.5C1266.7 255 1333.3 257 1400 260.5C1466.7 264 1533.3 269 1600 271.5C1666.7 274 1733.3 274 1800 272C1866.7 270 1933.3 266 2000 265.5C2066.7 265 2133.3 268 2200 265.5C2266.7 263 2333.3 255 2400 253.5C2466.7 252 2533.3 257 2600 259.5C2666.7 262 2733.3 262 2800 262.5C2866.7 263 2933.3 264 2966.7 264.5L3000 265L3000 221L2966.7 223C2933.3 225 2866.7 229 2800 230C2733.3 231 2666.7 229 2600 227.5C2533.3 226 2466.7 225 2400 229C2333.3 233 2266.7 242 2200 241C2133.3 240 2066.7 229 2000 227C1933.3 225 1866.7 232 1800 237C1733.3 242 1666.7 245 1600 245.5C1533.3 246 1466.7 244 1400 242C1333.3 240 1266.7 238 1200 238.5C1133.3 239 1066.7 242 1000 246C933.3 250 866.7 255 800 251C733.3 247 666.7 234 600 232.5C533.3 231 466.7 241 400 244.5C333.3 248 266.7 245 200 237.5C133.3 230 66.7 218 33.3 212L0 206Z" fill="#d6ecd5"></path><path d="M0 301L33.3 301C66.7 301 133.3 301 200 301C266.7 301 333.3 301 400 301C466.7 301 533.3 301 600 301C666.7 301 733.3 301 800 301C866.7 301 933.3 301 1000 301C1066.7 301 1133.3 301 1200 301C1266.7 301 1333.3 301 1400 301C1466.7 301 1533.3 301 1600 301C1666.7 301 1733.3 301 1800 301C1866.7 301 1933.3 301 2000 301C2066.7 301 2133.3 301 2200 301C2266.7 301 2333.3 301 2400 301C2466.7 301 2533.3 301 2600 301C2666.7 301 2733.3 301 2800 301C2866.7 301 2933.3 301 2966.7 301L3000 301L3000 263L2966.7 262.5C2933.3 262 2866.7 261 2800 260.5C2733.3 260 2666.7 260 2600 257.5C2533.3 255 2466.7 250 2400 251.5C2333.3 253 2266.7 261 2200 263.5C2133.3 266 2066.7 263 2000 263.5C1933.3 264 1866.7 268 1800 270C1733.3 272 1666.7 272 1600 269.5C1533.3 267 1466.7 262 1400 258.5C1333.3 255 1266.7 253 1200 256.5C1133.3 260 1066.7 269 1000 273C933.3 277 866.7 276 800 274C733.3 272 666.7 269 600 267.5C533.3 266 466.7 266 400 268C333.3 270 266.7 274 200 270.5C133.3 267 66.7 256 33.3 250.5L0 245Z" fill="#ffffff"></path></svg>