<svg id="visual" viewBox="0 0 960 540" width="960" height="540" xmlns="http://www.w3.org/2000/svg" xmlns:xlink="http://www.w3.org/1999/xlink" version="1.1"><rect x="0" y="0" width="960" height="540" fill="#3EA65A"></rect><path d="M0 356L22.8 366.3C45.7 376.7 91.3 397.3 137 390.7C182.7 384 228.3 350 274 337C319.7 324 365.3 332 411.2 344.7C457 357.3 503 374.7 548.8 380.5C594.7 386.3 640.3 380.7 686 377.8C731.7 375 777.3 375 823 363C868.7 351 914.3 327 937.2 315L960 303L960 541L937.2 541C914.3 541 868.7 541 823 541C777.3 541 731.7 541 686 541C640.3 541 594.7 541 548.8 541C503 541 457 541 411.2 541C365.3 541 319.7 541 274 541C228.3 541 182.7 541 137 541C91.3 541 45.7 541 22.8 541L0 541Z" fill="#005830" stroke-linecap="round" stroke-linejoin="miter"></path></svg>